STARTFONT 2.1
COMMENT 
COMMENT 7x14 dot ISO8859, 1byte character set, Ver. 0.2(May 10th, 2002)
COMMENT This bdf font is based on 6x12.bdf.
COMMENT      (http://hp.vector.co.jp/authors/VAIO13391/fonts/)
COMMENT 
COMMENT If you find an error in this file,
COMMENT    please send a mail to imamura@mbd.sphere.ne.jp
COMMENT 
FONT -Misc-Fixed-Medium-R-Normal--14-130-75-75-C-70-iso8859-1
SIZE 14 75 75
FONTBOUNDINGBOX 7 14 0 -2
STARTPROPERTIES 19
FONT_ASCENT 12
FONT_DESCENT 2
DEFAULT_CHAR 32
COPYRIGHT "Public domain"
FONTNAME_REGISTRY ""
FOUNDRY "Misc"
FAMILY_NAME "Fixed"
WEIGHT_NAME "Medium"
SLANT "R"
SETWIDTH_NAME "Normal"
ADD_STYLE_NAME ""
PIXEL_SIZE 14
POINT_SIZE 130
RESOLUTION_X 75
RESOLUTION_Y 75
SPACING "C"
AVERAGE_WIDTH 70
CHARSET_REGISTRY "iso8859"
CHARSET_ENCODING "1"
ENDPROPERTIES
CHARS 256
STARTCHAR char0
ENCODING 0
SWIDTH 560 0
DWIDTH 7 0
BBX 7 14 0 -2
BITMAP
00
00
00
00
00
00
00
00
00
00
00
00
00
00
ENDCHAR
STARTCHAR char1
ENCODING 1
SWIDTH 560 0
DWIDTH 7 0
BBX 7 14 0 -2
BITMAP
00
00
00
00
00
00
00
00
00
00
00
00
00
00
ENDCHAR
STARTCHAR char2
ENCODING 2
SWIDTH 560 0
DWIDTH 7 0
BBX 7 14 0 -2
BITMAP
00
00
00
00
00
00
00
00
00
00
00
00
00
00
ENDCHAR
STARTCHAR char3
ENCODING 3
SWIDTH 560 0
DWIDTH 7 0
BBX 7 14 0 -2
BITMAP
00
00
00
00
00
00
00
00
00
00
00
00
00
00
ENDCHAR
STARTCHAR char4
ENCODING 4
SWIDTH 560 0
DWIDTH 7 0
BBX 7 14 0 -2
BITMAP
00
00
00
00
00
00
00
00
00
00
00
00
00
00
ENDCHAR
STARTCHAR char5
ENCODING 5
SWIDTH 560 0
DWIDTH 7 0
BBX 7 14 0 -2
BITMAP
00
00
00
00
00
00
00
00
00
00
00
00
00
00
ENDCHAR
STARTCHAR char6
ENCODING 6
SWIDTH 560 0
DWIDTH 7 0
BBX 7 14 0 -2
BITMAP
00
00
00
00
00
00
00
00
00
00
00
00
00
00
ENDCHAR
STARTCHAR char7
ENCODING 7
SWIDTH 560 0
DWIDTH 7 0
BBX 7 14 0 -2
BITMAP
00
00
00
00
00
00
00
00
00
00
00
00
00
00
ENDCHAR
STARTCHAR char8
ENCODING 8
SWIDTH 560 0
DWIDTH 7 0
BBX 7 14 0 -2
BITMAP
00
00
00
00
00
00
00
00
00
00
00
00
00
00
ENDCHAR
STARTCHAR char9
ENCODING 9
SWIDTH 560 0
DWIDTH 7 0
BBX 7 14 0 -2
BITMAP
00
00
00
00
00
00
00
00
00
00
00
00
00
00
ENDCHAR
STARTCHAR char10
ENCODING 10
SWIDTH 560 0
DWIDTH 7 0
BBX 7 14 0 -2
BITMAP
00
00
00
00
00
00
00
00
00
00
00
00
00
00
ENDCHAR
STARTCHAR char11
ENCODING 11
SWIDTH 560 0
DWIDTH 7 0
BBX 7 14 0 -2
BITMAP
00
00
00
00
00
00
00
00
00
00
00
00
00
00
ENDCHAR
STARTCHAR char12
ENCODING 12
SWIDTH 560 0
DWIDTH 7 0
BBX 7 14 0 -2
BITMAP
00
00
00
00
00
00
00
00
00
00
00
00
00
00
ENDCHAR
STARTCHAR char13
ENCODING 13
SWIDTH 560 0
DWIDTH 7 0
BBX 7 14 0 -2
BITMAP
00
00
00
00
00
00
00
00
00
00
00
00
00
00
ENDCHAR
STARTCHAR char14
ENCODING 14
SWIDTH 560 0
DWIDTH 7 0
BBX 7 14 0 -2
BITMAP
00
00
00
00
00
00
00
00
00
00
00
00
00
00
ENDCHAR
STARTCHAR char15
ENCODING 15
SWIDTH 560 0
DWIDTH 7 0
BBX 7 14 0 -2
BITMAP
00
00
00
00
00
00
00
00
00
00
00
00
00
00
ENDCHAR
STARTCHAR char16
ENCODING 16
SWIDTH 560 0
DWIDTH 7 0
BBX 7 14 0 -2
BITMAP
00
00
00
00
00
00
00
00
00
00
00
00
00
00
ENDCHAR
STARTCHAR char17
ENCODING 17
SWIDTH 560 0
DWIDTH 7 0
BBX 7 14 0 -2
BITMAP
00
00
00
00
00
00
00
00
00
00
00
00
00
00
ENDCHAR
STARTCHAR char18
ENCODING 18
SWIDTH 560 0
DWIDTH 7 0
BBX 7 14 0 -2
BITMAP
00
00
00
00
00
00
00
00
00
00
00
00
00
00
ENDCHAR
STARTCHAR char19
ENCODING 19
SWIDTH 560 0
DWIDTH 7 0
BBX 7 14 0 -2
BITMAP
00
00
00
00
00
00
00
00
00
00
00
00
00
00
ENDCHAR
STARTCHAR char20
ENCODING 20
SWIDTH 560 0
DWIDTH 7 0
BBX 7 14 0 -2
BITMAP
00
00
00
00
00
00
00
00
00
00
00
00
00
00
ENDCHAR
STARTCHAR char21
ENCODING 21
SWIDTH 560 0
DWIDTH 7 0
BBX 7 14 0 -2
BITMAP
00
00
00
00
00
00
00
00
00
00
00
00
00
00
ENDCHAR
STARTCHAR char22
ENCODING 22
SWIDTH 560 0
DWIDTH 7 0
BBX 7 14 0 -2
BITMAP
00
00
00
00
00
00
00
00
00
00
00
00
00
00
ENDCHAR
STARTCHAR char23
ENCODING 23
SWIDTH 560 0
DWIDTH 7 0
BBX 7 14 0 -2
BITMAP
00
00
00
00
00
00
00
00
00
00
00
00
00
00
ENDCHAR
STARTCHAR char24
ENCODING 24
SWIDTH 560 0
DWIDTH 7 0
BBX 7 14 0 -2
BITMAP
00
00
00
00
00
00
00
00
00
00
00
00
00
00
ENDCHAR
STARTCHAR char25
ENCODING 25
SWIDTH 560 0
DWIDTH 7 0
BBX 7 14 0 -2
BITMAP
00
00
00
00
00
00
00
00
00
00
00
00
00
00
ENDCHAR
STARTCHAR char26
ENCODING 26
SWIDTH 560 0
DWIDTH 7 0
BBX 7 14 0 -2
BITMAP
00
00
00
00
00
00
00
00
00
00
00
00
00
00
ENDCHAR
STARTCHAR char27
ENCODING 27
SWIDTH 560 0
DWIDTH 7 0
BBX 7 14 0 -2
BITMAP
00
00
00
00
00
00
00
00
00
00
00
00
00
00
ENDCHAR
STARTCHAR char28
ENCODING 28
SWIDTH 560 0
DWIDTH 7 0
BBX 7 14 0 -2
BITMAP
00
00
00
00
00
00
00
00
00
00
00
00
00
00
ENDCHAR
STARTCHAR char29
ENCODING 29
SWIDTH 560 0
DWIDTH 7 0
BBX 7 14 0 -2
BITMAP
00
00
00
00
00
00
00
00
00
00
00
00
00
00
ENDCHAR
STARTCHAR char30
ENCODING 30
SWIDTH 560 0
DWIDTH 7 0
BBX 7 14 0 -2
BITMAP
00
00
00
00
00
00
00
00
00
00
00
00
00
00
ENDCHAR
STARTCHAR char31
ENCODING 31
SWIDTH 560 0
DWIDTH 7 0
BBX 7 14 0 -2
BITMAP
00
00
00
00
00
00
00
00
00
00
00
00
00
00
ENDCHAR
STARTCHAR space
ENCODING 32
SWIDTH 560 0
DWIDTH 7 0
BBX 7 14 0 -2
BITMAP
00
00
00
00
00
00
00
00
00
00
00
00
00
00
ENDCHAR
STARTCHAR exclam
ENCODING 33
SWIDTH 560 0
DWIDTH 7 0
BBX 7 14 0 -2
BITMAP
00
00
18
18
18
18
10
10
10
00
00
18
18
00
ENDCHAR
STARTCHAR quotedbl
ENCODING 34
SWIDTH 560 0
DWIDTH 7 0
BBX 7 14 0 -2
BITMAP
00
6c
6c
24
48
00
00
00
00
00
00
00
00
00
ENDCHAR
STARTCHAR numbersign
ENCODING 35
SWIDTH 560 0
DWIDTH 7 0
BBX 7 14 0 -2
BITMAP
00
00
24
24
24
7e
24
24
48
7e
48
48
48
00
ENDCHAR
STARTCHAR dollar
ENCODING 36
SWIDTH 560 0
DWIDTH 7 0
BBX 7 14 0 -2
BITMAP
00
00
10
3c
52
52
50
38
14
52
52
3c
10
00
ENDCHAR
STARTCHAR percent
ENCODING 37
SWIDTH 560 0
DWIDTH 7 0
BBX 7 14 0 -2
BITMAP
00
00
22
52
54
54
28
18
14
2a
2a
4A
44
00
ENDCHAR
STARTCHAR char38
ENCODING 38
SWIDTH 560 0
DWIDTH 7 0
BBX 7 14 0 -2
BITMAP
00
00
10
28
28
10
26
52
52
4c
44
2a
10
00
ENDCHAR
STARTCHAR char39
ENCODING 39
SWIDTH 560 0
DWIDTH 7 0
BBX 7 14 0 -2
BITMAP
00
30
30
10
20
00
00
00
00
00
00
00
00
00
ENDCHAR
STARTCHAR char40
ENCODING 40
SWIDTH 560 0
DWIDTH 7 0
BBX 7 14 0 -2
BITMAP
00
04
08
10
10
20
20
20
20
20
10
10
08
04
ENDCHAR
STARTCHAR char41
ENCODING 41
SWIDTH 560 0
DWIDTH 7 0
BBX 7 14 0 -2
BITMAP
00
20
10
08
08
04
04
04
04
04
08
08
10
20
ENDCHAR
STARTCHAR char42
ENCODING 42
SWIDTH 560 0
DWIDTH 7 0
BBX 7 14 0 -2
BITMAP
00
00
00
10
10
d6
54
38
54
d6
10
10
00
00
ENDCHAR
STARTCHAR char43
ENCODING 43
SWIDTH 560 0
DWIDTH 7 0
BBX 7 14 0 -2
BITMAP
00
00
00
10
10
10
10
7e
10
10
10
10
00
00
ENDCHAR
STARTCHAR char44
ENCODING 44
SWIDTH 560 0
DWIDTH 7 0
BBX 7 14 0 -2
BITMAP
00
00
00
00
00
00
00
00
00
00
30
30
10
20
ENDCHAR
STARTCHAR char45
ENCODING 45
SWIDTH 560 0
DWIDTH 7 0
BBX 7 14 0 -2
BITMAP
00
00
00
00
00
00
00
7e
00
00
00
00
00
00
ENDCHAR
STARTCHAR char46
ENCODING 46
SWIDTH 560 0
DWIDTH 7 0
BBX 7 14 0 -2
BITMAP
00
00
00
00
00
00
00
00
00
00
00
30
30
00
ENDCHAR
STARTCHAR char47
ENCODING 47
SWIDTH 560 0
DWIDTH 7 0
BBX 7 14 0 -2
BITMAP
02
02
04
04
08
08
10
10
20
20
40
40
80
80
ENDCHAR
STARTCHAR char48
ENCODING 48
SWIDTH 560 0
DWIDTH 7 0
BBX 7 14 0 -2
BITMAP
00
00
18
24
24
42
42
42
42
24
24
18
00
00
ENDCHAR
STARTCHAR char49
ENCODING 49
SWIDTH 560 0
DWIDTH 7 0
BBX 7 14 0 -2
BITMAP
00
00
10
70
10
10
10
10
10
10
10
7c
00
00
ENDCHAR
STARTCHAR char50
ENCODING 50
SWIDTH 560 0
DWIDTH 7 0
BBX 7 14 0 -2
BITMAP
00
00
18
24
42
22
04
08
10
20
22
7e
00
00
ENDCHAR
STARTCHAR char51
ENCODING 51
SWIDTH 560 0
DWIDTH 7 0
BBX 7 14 0 -2
BITMAP
00
00
18
24
42
44
18
04
42
42
24
18
00
00
ENDCHAR
STARTCHAR char52
ENCODING 52
SWIDTH 560 0
DWIDTH 7 0
BBX 7 14 0 -2
BITMAP
00
00
04
0C
14
14
24
24
7e
04
04
0e
00
00
ENDCHAR
STARTCHAR char53
ENCODING 53
SWIDTH 560 0
DWIDTH 7 0
BBX 7 14 0 -2
BITMAP
00
00
7c
40
40
58
64
42
02
42
24
18
00
00
ENDCHAR
STARTCHAR char54
ENCODING 54
SWIDTH 560 0
DWIDTH 7 0
BBX 7 14 0 -2
BITMAP
00
00
1c
22
42
58
64
42
42
42
24
18
00
00
ENDCHAR
STARTCHAR char55
ENCODING 55
SWIDTH 560 0
DWIDTH 7 0
BBX 7 14 0 -2
BITMAP
00
00
3e
22
42
04
04
08
08
08
08
08
00
00
ENDCHAR
STARTCHAR char56
ENCODING 56
SWIDTH 560 0
DWIDTH 7 0
BBX 7 14 0 -2
BITMAP
00
00
18
24
42
24
18
24
42
42
24
18
00
00
ENDCHAR
STARTCHAR char57
ENCODING 57
SWIDTH 560 0
DWIDTH 7 0
BBX 7 14 0 -2
BITMAP
00
00
18
24
42
42
26
1a
02
44
24
18
00
00
ENDCHAR
STARTCHAR char58
ENCODING 58
SWIDTH 560 0
DWIDTH 7 0
BBX 7 14 0 -2
BITMAP
00
00
00
00
18
18
00
00
00
18
18
00
00
00
ENDCHAR
STARTCHAR char59
ENCODING 59
SWIDTH 560 0
DWIDTH 7 0
BBX 7 14 0 -2
BITMAP
00
00
00
00
18
18
00
00
00
18
18
08
10
00
ENDCHAR
STARTCHAR char60
ENCODING 60
SWIDTH 560 0
DWIDTH 7 0
BBX 7 14 0 -2
BITMAP
00
00
02
04
08
10
20
40
20
10
08
04
02
00
ENDCHAR
STARTCHAR char61
ENCODING 61
SWIDTH 560 0
DWIDTH 7 0
BBX 7 14 0 -2
BITMAP
00
00
00
00
7e
00
00
00
7E
00
00
00
00
00
ENDCHAR
STARTCHAR char62
ENCODING 62
SWIDTH 560 0
DWIDTH 7 0
BBX 7 14 0 -2
BITMAP
00
00
40
20
10
08
04
02
04
08
10
20
40
00
ENDCHAR
STARTCHAR char63
ENCODING 63
SWIDTH 560 0
DWIDTH 7 0
BBX 7 14 0 -2
BITMAP
00
00
18
24
42
42
04
08
10
10
00
18
18
00
ENDCHAR
STARTCHAR char64
ENCODING 64
SWIDTH 560 0
DWIDTH 7 0
BBX 7 14 0 -2
BITMAP
00
00
18
24
22
4A
56
56
56
4A
20
22
1C
00
ENDCHAR
STARTCHAR char65
ENCODING 65
SWIDTH 560 0
DWIDTH 7 0
BBX 7 14 0 -2
BITMAP
00
00
10
10
28
28
28
24
7c
44
44
ee
00
00
ENDCHAR
STARTCHAR char66
ENCODING 66
SWIDTH 560 0
DWIDTH 7 0
BBX 7 14 0 -2
BITMAP
00
00
78
24
24
28
3c
22
22
22
24
78
00
00
ENDCHAR
STARTCHAR char67
ENCODING 67
SWIDTH 560 0
DWIDTH 7 0
BBX 7 14 0 -2
BITMAP
00
00
1a
26
22
42
40
40
40
22
26
18
00
00
ENDCHAR
STARTCHAR char68
ENCODING 68
SWIDTH 560 0
DWIDTH 7 0
BBX 7 14 0 -2
BITMAP
00
00
78
24
24
22
22
22
22
24
24
78
00
00
ENDCHAR
STARTCHAR char69
ENCODING 69
SWIDTH 560 0
DWIDTH 7 0
BBX 7 14 0 -2
BITMAP
00
00
7c
22
20
24
3c
24
20
20
22
7e
00
00
ENDCHAR
STARTCHAR char70
ENCODING 70
SWIDTH 560 0
DWIDTH 7 0
BBX 7 14 0 -2
BITMAP
00
00
7c
22
20
24
3c
24
20
20
20
78
00
00
ENDCHAR
STARTCHAR char71
ENCODING 71
SWIDTH 560 0
DWIDTH 7 0
BBX 7 14 0 -2
BITMAP
00
00
1a
26
22
42
40
4e
42
22
26
1a
00
00
ENDCHAR
STARTCHAR char72
ENCODING 72
SWIDTH 560 0
DWIDTH 7 0
BBX 7 14 0 -2
BITMAP
00
00
ee
44
44
44
7c
44
44
44
44
ee
00
00
ENDCHAR
STARTCHAR char73
ENCODING 73
SWIDTH 560 0
DWIDTH 7 0
BBX 7 14 0 -2
BITMAP
00
00
7c
10
10
10
10
10
10
10
10
7c
00
00
ENDCHAR
STARTCHAR char74
ENCODING 74
SWIDTH 560 0
DWIDTH 7 0
BBX 7 14 0 -2
BITMAP
00
00
1e
04
04
04
04
04
44
44
48
30
00
00
ENDCHAR
STARTCHAR char75
ENCODING 75
SWIDTH 560 0
DWIDTH 7 0
BBX 7 14 0 -2
BITMAP
00
00
6e
24
28
28
30
28
24
24
22
76
00
00
ENDCHAR
STARTCHAR char76
ENCODING 76
SWIDTH 560 0
DWIDTH 7 0
BBX 7 14 0 -2
BITMAP
00
00
70
20
20
20
20
20
20
20
22
7c
00
00
ENDCHAR
STARTCHAR char77
ENCODING 77
SWIDTH 560 0
DWIDTH 7 0
BBX 7 14 0 -2
BITMAP
00
00
42
66
66
6a
5a
52
52
42
42
66
00
00
ENDCHAR
STARTCHAR char78
ENCODING 78
SWIDTH 560 0
DWIDTH 7 0
BBX 7 14 0 -2
BITMAP
00
00
46
62
62
52
52
4A
4a
46
46
62
00
00
ENDCHAR
STARTCHAR char79
ENCODING 79
SWIDTH 560 0
DWIDTH 7 0
BBX 7 14 0 -2
BITMAP
00
00
18
24
42
42
42
42
42
42
24
18
00
00
ENDCHAR
STARTCHAR char80
ENCODING 80
SWIDTH 560 0
DWIDTH 7 0
BBX 7 14 0 -2
BITMAP
00
00
78
24
22
22
24
38
20
20
20
70
00
00
ENDCHAR
STARTCHAR char81
ENCODING 81
SWIDTH 560 0
DWIDTH 7 0
BBX 7 14 0 -2
BITMAP
00
00
18
24
42
42
42
42
72
4e
24
18
06
00
ENDCHAR
STARTCHAR char82
ENCODING 82
SWIDTH 560 0
DWIDTH 7 0
BBX 7 14 0 -2
BITMAP
00
00
78
24
22
22
24
38
28
24
24
72
00
00
ENDCHAR
STARTCHAR char83
ENCODING 83
SWIDTH 560 0
DWIDTH 7 0
BBX 7 14 0 -2
BITMAP
00
00
1a
26
42
20
18
04
02
42
64
58
00
00
ENDCHAR
STARTCHAR char84
ENCODING 84
SWIDTH 560 0
DWIDTH 7 0
BBX 7 14 0 -2
BITMAP
00
00
7e
52
10
10
10
10
10
10
10
38
00
00
ENDCHAR
STARTCHAR char85
ENCODING 85
SWIDTH 560 0
DWIDTH 7 0
BBX 7 14 0 -2
BITMAP
00
00
76
22
22
22
22
22
22
22
14
08
00
00
ENDCHAR
STARTCHAR char86
ENCODING 86
SWIDTH 560 0
DWIDTH 7 0
BBX 7 14 0 -2
BITMAP
00
00
66
42
24
24
24
28
18
10
10
10
00
00
ENDCHAR
STARTCHAR char87
ENCODING 87
SWIDTH 560 0
DWIDTH 7 0
BBX 7 14 0 -2
BITMAP
00
00
92
92
92
52
5A
6A
6c
24
24
24
00
00
ENDCHAR
STARTCHAR char88
ENCODING 88
SWIDTH 560 0
DWIDTH 7 0
BBX 7 14 0 -2
BITMAP
00
00
62
44
24
28
10
18
28
24
44
4e
00
00
ENDCHAR
STARTCHAR char89
ENCODING 89
SWIDTH 560 0
DWIDTH 7 0
BBX 7 14 0 -2
BITMAP
00
00
e6
42
24
28
18
10
10
10
10
38
00
00
ENDCHAR
STARTCHAR char90
ENCODING 90
SWIDTH 560 0
DWIDTH 7 0
BBX 7 14 0 -2
BITMAP
00
00
3e
44
04
08
08
10
20
20
42
7c
00
00
ENDCHAR
STARTCHAR char91
ENCODING 91
SWIDTH 560 0
DWIDTH 7 0
BBX 7 14 0 -2
BITMAP
00
3c
20
20
20
20
20
20
20
20
20
20
20
3C
ENDCHAR
STARTCHAR char92
ENCODING 92
SWIDTH 560 0
DWIDTH 7 0
BBX 7 14 0 -2
BITMAP
80
80
40
40
20
20
10
10
08
08
04
04
02
02
ENDCHAR
STARTCHAR char93
ENCODING 93
SWIDTH 560 0
DWIDTH 7 0
BBX 7 14 0 -2
BITMAP
00
3c
04
04
04
04
04
04
04
04
04
04
04
3C
ENDCHAR
STARTCHAR char94
ENCODING 94
SWIDTH 560 0
DWIDTH 7 0
BBX 7 14 0 -2
BITMAP
00
10
28
44
82
00
00
00
00
00
00
00
00
00
ENDCHAR
STARTCHAR char95
ENCODING 95
SWIDTH 560 0
DWIDTH 7 0
BBX 7 14 0 -2
BITMAP
00
00
00
00
00
00
00
00
00
00
00
00
00
FE
ENDCHAR
STARTCHAR char96
ENCODING 96
SWIDTH 560 0
DWIDTH 7 0
BBX 7 14 0 -2
BITMAP
00
18
18
10
08
00
00
00
00
00
00
00
00
00
ENDCHAR
STARTCHAR char97
ENCODING 97
SWIDTH 560 0
DWIDTH 7 0
BBX 7 14 0 -2
BITMAP
00
00
00
00
38
44
44
1c
24
44
44
3a
00
00
ENDCHAR
STARTCHAR char98
ENCODING 98
SWIDTH 560 0
DWIDTH 7 0
BBX 7 14 0 -2
BITMAP
00
00
60
20
28
34
22
22
22
22
24
38
00
00
ENDCHAR
STARTCHAR char99
ENCODING 99
SWIDTH 560 0
DWIDTH 7 0
BBX 7 14 0 -2
BITMAP
00
00
00
00
1a
26
42
40
40
42
26
18
00
00
ENDCHAR
STARTCHAR char100
ENCODING 100
SWIDTH 560 0
DWIDTH 7 0
BBX 7 14 0 -2
BITMAP
00
00
0c
04
14
2c
44
44
44
44
24
1e
00
00
ENDCHAR
STARTCHAR char101
ENCODING 101
SWIDTH 560 0
DWIDTH 7 0
BBX 7 14 0 -2
BITMAP
00
00
00
00
18
24
42
7e
40
42
22
1c
00
00
ENDCHAR
STARTCHAR char102
ENCODING 102
SWIDTH 560 0
DWIDTH 7 0
BBX 7 14 0 -2
BITMAP
00
00
0c
12
12
7c
10
10
10
10
10
38
00
00
ENDCHAR
STARTCHAR char103
ENCODING 103
SWIDTH 560 0
DWIDTH 7 0
BBX 7 14 0 -2
BITMAP
00
00
00
00
1a
24
24
24
18
20
5c
42
42
3C
ENDCHAR
STARTCHAR char104
ENCODING 104
SWIDTH 560 0
DWIDTH 7 0
BBX 7 14 0 -2
BITMAP
00
00
c0
40
50
68
44
44
44
44
44
c6
00
00
ENDCHAR
STARTCHAR char105
ENCODING 105
SWIDTH 560 0
DWIDTH 7 0
BBX 7 14 0 -2
BITMAP
00
00
18
18
00
38
08
08
08
08
08
3c
00
00
ENDCHAR
STARTCHAR char106
ENCODING 106
SWIDTH 560 0
DWIDTH 7 0
BBX 7 14 0 -2
BITMAP
00
00
0c
0c
00
1c
04
04
04
04
04
44
48
30
ENDCHAR
STARTCHAR char107
ENCODING 107
SWIDTH 560 0
DWIDTH 7 0
BBX 7 14 0 -2
BITMAP
00
00
c0
40
46
44
48
58
68
44
44
ce
00
00
ENDCHAR
STARTCHAR char108
ENCODING 108
SWIDTH 560 0
DWIDTH 7 0
BBX 7 14 0 -2
BITMAP
00
00
38
08
08
08
08
08
08
08
08
3e
00
00
ENDCHAR
STARTCHAR char109
ENCODING 109
SWIDTH 560 0
DWIDTH 7 0
BBX 7 14 0 -2
BITMAP
00
00
00
00
ac
d2
92
92
92
92
92
92
00
00
ENDCHAR
STARTCHAR char110
ENCODING 110
SWIDTH 560 0
DWIDTH 7 0
BBX 7 14 0 -2
BITMAP
00
00
00
00
d8
64
44
44
44
44
44
c6
00
00
ENDCHAR
STARTCHAR char111
ENCODING 111
SWIDTH 560 0
DWIDTH 7 0
BBX 7 14 0 -2
BITMAP
00
00
00
00
18
24
42
42
42
42
24
18
00
00
ENDCHAR
STARTCHAR char112
ENCODING 112
SWIDTH 560 0
DWIDTH 7 0
BBX 7 14 0 -2
BITMAP
00
00
00
00
58
24
22
22
22
22
24
38
20
70
ENDCHAR
STARTCHAR char113
ENCODING 113
SWIDTH 560 0
DWIDTH 7 0
BBX 7 14 0 -2
BITMAP
00
00
00
00
1a
24
44
44
44
44
24
1c
04
0E
ENDCHAR
STARTCHAR char114
ENCODING 114
SWIDTH 560 0
DWIDTH 7 0
BBX 7 14 0 -2
BITMAP
00
00
00
00
5c
22
22
20
20
20
20
70
00
00
ENDCHAR
STARTCHAR char115
ENCODING 115
SWIDTH 560 0
DWIDTH 7 0
BBX 7 14 0 -2
BITMAP
00
00
00
00
3c
44
40
30
0c
42
62
5c
00
00
ENDCHAR
STARTCHAR char116
ENCODING 116
SWIDTH 560 0
DWIDTH 7 0
BBX 7 14 0 -2
BITMAP
00
00
10
10
10
7c
10
10
10
10
12
0c
00
00
ENDCHAR
STARTCHAR char117
ENCODING 117
SWIDTH 560 0
DWIDTH 7 0
BBX 7 14 0 -2
BITMAP
00
00
00
00
cc
44
44
44
44
44
4c
32
00
00
ENDCHAR
STARTCHAR char118
ENCODING 118
SWIDTH 560 0
DWIDTH 7 0
BBX 7 14 0 -2
BITMAP
00
00
00
00
66
42
44
24
28
18
10
10
00
00
ENDCHAR
STARTCHAR char119
ENCODING 119
SWIDTH 560 0
DWIDTH 7 0
BBX 7 14 0 -2
BITMAP
00
00
00
00
92
92
92
92
5A
6c
24
24
00
00
ENDCHAR
STARTCHAR char120
ENCODING 120
SWIDTH 560 0
DWIDTH 7 0
BBX 7 14 0 -2
BITMAP
00
00
00
00
66
24
28
18
18
14
24
66
00
00
ENDCHAR
STARTCHAR char121
ENCODING 121
SWIDTH 560 0
DWIDTH 7 0
BBX 7 14 0 -2
BITMAP
00
00
00
00
66
22
22
14
14
08
08
48
50
20
ENDCHAR
STARTCHAR char122
ENCODING 122
SWIDTH 560 0
DWIDTH 7 0
BBX 7 14 0 -2
BITMAP
00
00
00
00
3e
44
08
08
10
10
22
7e
00
00
ENDCHAR
STARTCHAR char123
ENCODING 123
SWIDTH 560 0
DWIDTH 7 0
BBX 7 14 0 -2
BITMAP
00
06
08
10
10
10
10
20
10
10
10
10
08
06
ENDCHAR
STARTCHAR char124
ENCODING 124
SWIDTH 560 0
DWIDTH 7 0
BBX 7 14 0 -2
BITMAP
00
10
10
10
10
10
10
10
10
10
10
10
10
10
ENDCHAR
STARTCHAR char125
ENCODING 125
SWIDTH 560 0
DWIDTH 7 0
BBX 7 14 0 -2
BITMAP
00
60
10
08
08
08
08
04
08
08
08
08
10
60
ENDCHAR
STARTCHAR char126
ENCODING 126
SWIDTH 560 0
DWIDTH 7 0
BBX 7 14 0 -2
BITMAP
00
32
4c
00
00
00
00
00
00
00
00
00
00
00
ENDCHAR
STARTCHAR char127
ENCODING 127
SWIDTH 560 0
DWIDTH 7 0
BBX 7 14 0 -2
BITMAP
00
00
00
00
00
00
00
00
00
00
00
00
00
00
ENDCHAR
STARTCHAR char128
ENCODING 128
SWIDTH 560 0
DWIDTH 7 0
BBX 7 14 0 -2
BITMAP
00
00
00
00
00
00
00
00
00
00
00
00
00
00
ENDCHAR
STARTCHAR char129
ENCODING 129
SWIDTH 560 0
DWIDTH 7 0
BBX 7 14 0 -2
BITMAP
00
00
00
00
00
00
00
00
00
00
00
00
00
00
ENDCHAR
STARTCHAR char130
ENCODING 130
SWIDTH 560 0
DWIDTH 7 0
BBX 7 14 0 -2
BITMAP
00
00
00
00
00
00
00
00
00
00
00
00
00
00
ENDCHAR
STARTCHAR char131
ENCODING 131
SWIDTH 560 0
DWIDTH 7 0
BBX 7 14 0 -2
BITMAP
00
00
00
00
00
00
00
00
00
00
00
00
00
00
ENDCHAR
STARTCHAR char132
ENCODING 132
SWIDTH 560 0
DWIDTH 7 0
BBX 7 14 0 -2
BITMAP
00
00
00
00
00
00
00
00
00
00
00
00
00
00
ENDCHAR
STARTCHAR char133
ENCODING 133
SWIDTH 560 0
DWIDTH 7 0
BBX 7 14 0 -2
BITMAP
00
00
00
00
00
00
00
00
00
00
00
00
00
00
ENDCHAR
STARTCHAR char134
ENCODING 134
SWIDTH 560 0
DWIDTH 7 0
BBX 7 14 0 -2
BITMAP
00
00
00
00
00
00
00
00
00
00
00
00
00
00
ENDCHAR
STARTCHAR char135
ENCODING 135
SWIDTH 560 0
DWIDTH 7 0
BBX 7 14 0 -2
BITMAP
00
00
00
00
00
00
00
00
00
00
00
00
00
00
ENDCHAR
STARTCHAR char136
ENCODING 136
SWIDTH 560 0
DWIDTH 7 0
BBX 7 14 0 -2
BITMAP
00
00
00
00
00
00
00
00
00
00
00
00
00
00
ENDCHAR
STARTCHAR char137
ENCODING 137
SWIDTH 560 0
DWIDTH 7 0
BBX 7 14 0 -2
BITMAP
00
00
00
00
00
00
00
00
00
00
00
00
00
00
ENDCHAR
STARTCHAR char138
ENCODING 138
SWIDTH 560 0
DWIDTH 7 0
BBX 7 14 0 -2
BITMAP
00
00
00
00
00
00
00
00
00
00
00
00
00
00
ENDCHAR
STARTCHAR char139
ENCODING 139
SWIDTH 560 0
DWIDTH 7 0
BBX 7 14 0 -2
BITMAP
00
00
00
00
00
00
00
00
00
00
00
00
00
00
ENDCHAR
STARTCHAR char140
ENCODING 140
SWIDTH 560 0
DWIDTH 7 0
BBX 7 14 0 -2
BITMAP
00
00
00
00
00
00
00
00
00
00
00
00
00
00
ENDCHAR
STARTCHAR char141
ENCODING 141
SWIDTH 560 0
DWIDTH 7 0
BBX 7 14 0 -2
BITMAP
00
00
00
00
00
00
00
00
00
00
00
00
00
00
ENDCHAR
STARTCHAR char142
ENCODING 142
SWIDTH 560 0
DWIDTH 7 0
BBX 7 14 0 -2
BITMAP
00
00
00
00
00
00
00
00
00
00
00
00
00
00
ENDCHAR
STARTCHAR char143
ENCODING 143
SWIDTH 560 0
DWIDTH 7 0
BBX 7 14 0 -2
BITMAP
00
00
00
00
00
00
00
00
00
00
00
00
00
00
ENDCHAR
STARTCHAR char144
ENCODING 144
SWIDTH 560 0
DWIDTH 7 0
BBX 7 14 0 -2
BITMAP
00
00
00
00
00
00
00
00
00
00
00
00
00
00
ENDCHAR
STARTCHAR char145
ENCODING 145
SWIDTH 560 0
DWIDTH 7 0
BBX 7 14 0 -2
BITMAP
00
00
00
00
00
00
00
00
00
00
00
00
00
00
ENDCHAR
STARTCHAR char146
ENCODING 146
SWIDTH 560 0
DWIDTH 7 0
BBX 7 14 0 -2
BITMAP
00
00
00
00
00
00
00
00
00
00
00
00
00
00
ENDCHAR
STARTCHAR char147
ENCODING 147
SWIDTH 560 0
DWIDTH 7 0
BBX 7 14 0 -2
BITMAP
00
00
00
00
00
00
00
00
00
00
00
00
00
00
ENDCHAR
STARTCHAR char148
ENCODING 148
SWIDTH 560 0
DWIDTH 7 0
BBX 7 14 0 -2
BITMAP
00
00
00
00
00
00
00
00
00
00
00
00
00
00
ENDCHAR
STARTCHAR char149
ENCODING 149
SWIDTH 560 0
DWIDTH 7 0
BBX 7 14 0 -2
BITMAP
00
00
00
00
00
00
00
00
00
00
00
00
00
00
ENDCHAR
STARTCHAR char150
ENCODING 150
SWIDTH 560 0
DWIDTH 7 0
BBX 7 14 0 -2
BITMAP
00
00
00
00
00
00
00
00
00
00
00
00
00
00
ENDCHAR
STARTCHAR char151
ENCODING 151
SWIDTH 560 0
DWIDTH 7 0
BBX 7 14 0 -2
BITMAP
00
00
00
00
00
00
00
00
00
00
00
00
00
00
ENDCHAR
STARTCHAR char152
ENCODING 152
SWIDTH 560 0
DWIDTH 7 0
BBX 7 14 0 -2
BITMAP
00
00
00
00
00
00
00
00
00
00
00
00
00
00
ENDCHAR
STARTCHAR char153
ENCODING 153
SWIDTH 560 0
DWIDTH 7 0
BBX 7 14 0 -2
BITMAP
00
00
00
00
00
00
00
00
00
00
00
00
00
00
ENDCHAR
STARTCHAR char154
ENCODING 154
SWIDTH 560 0
DWIDTH 7 0
BBX 7 14 0 -2
BITMAP
00
00
00
00
00
00
00
00
00
00
00
00
00
00
ENDCHAR
STARTCHAR char155
ENCODING 155
SWIDTH 560 0
DWIDTH 7 0
BBX 7 14 0 -2
BITMAP
00
00
00
00
00
00
00
00
00
00
00
00
00
00
ENDCHAR
STARTCHAR char156
ENCODING 156
SWIDTH 560 0
DWIDTH 7 0
BBX 7 14 0 -2
BITMAP
00
00
00
00
00
00
00
00
00
00
00
00
00
00
ENDCHAR
STARTCHAR char157
ENCODING 157
SWIDTH 560 0
DWIDTH 7 0
BBX 7 14 0 -2
BITMAP
00
00
00
00
00
00
00
00
00
00
00
00
00
00
ENDCHAR
STARTCHAR char158
ENCODING 158
SWIDTH 560 0
DWIDTH 7 0
BBX 7 14 0 -2
BITMAP
00
00
00
00
00
00
00
00
00
00
00
00
00
00
ENDCHAR
STARTCHAR char159
ENCODING 159
SWIDTH 560 0
DWIDTH 7 0
BBX 7 14 0 -2
BITMAP
00
00
00
00
00
00
00
00
00
00
00
00
00
00
ENDCHAR
STARTCHAR char160
ENCODING 160
SWIDTH 560 0
DWIDTH 7 0
BBX 7 14 0 -2
BITMAP
00
00
00
00
00
00
00
00
00
00
00
00
00
00
ENDCHAR
STARTCHAR char161
ENCODING 161
SWIDTH 560 0
DWIDTH 7 0
BBX 7 14 0 -2
BITMAP
00
00
30
30
00
00
10
10
10
10
30
30
30
30
ENDCHAR
STARTCHAR char162
ENCODING 162
SWIDTH 560 0
DWIDTH 7 0
BBX 7 14 0 -2
BITMAP
00
00
04
04
08
38
4c
54
64
38
20
40
40
00
ENDCHAR
STARTCHAR char163
ENCODING 163
SWIDTH 560 0
DWIDTH 7 0
BBX 7 14 0 -2
BITMAP
00
00
0c
12
22
20
78
20
60
a2
b2
4c
00
00
ENDCHAR
STARTCHAR char164
ENCODING 164
SWIDTH 560 0
DWIDTH 7 0
BBX 7 14 0 -2
BITMAP
00
00
00
00
42
3c
24
24
3c
42
00
00
00
00
ENDCHAR
STARTCHAR char165
ENCODING 165
SWIDTH 560 0
DWIDTH 7 0
BBX 7 14 0 -2
BITMAP
00
00
e6
44
28
7c
10
10
7c
10
10
38
00
00
ENDCHAR
STARTCHAR char166
ENCODING 166
SWIDTH 560 0
DWIDTH 7 0
BBX 7 14 0 -2
BITMAP
00
10
10
10
10
10
00
00
10
10
10
10
10
00
ENDCHAR
STARTCHAR char167
ENCODING 167
SWIDTH 560 0
DWIDTH 7 0
BBX 7 14 0 -2
BITMAP
00
00
38
44
44
30
48
44
24
18
44
44
38
00
ENDCHAR
STARTCHAR char168
ENCODING 168
SWIDTH 560 0
DWIDTH 7 0
BBX 7 14 0 -2
BITMAP
00
6c
6c
48
24
00
00
00
00
00
00
00
00
00
ENDCHAR
STARTCHAR char169
ENCODING 169
SWIDTH 560 0
DWIDTH 7 0
BBX 7 14 0 -2
BITMAP
00
00
7C
8a
9a
aa
A2
9A
82
7C
00
00
00
00
ENDCHAR
STARTCHAR char170
ENCODING 170
SWIDTH 560 0
DWIDTH 7 0
BBX 7 14 0 -2
BITMAP
00
3c
44
4c
34
00
7C
00
00
00
00
00
00
00
ENDCHAR
STARTCHAR char171
ENCODING 171
SWIDTH 560 0
DWIDTH 7 0
BBX 7 14 0 -2
BITMAP
00
00
00
00
00
00
12
24
48
24
12
00
00
00
ENDCHAR
STARTCHAR char172
ENCODING 172
SWIDTH 560 0
DWIDTH 7 0
BBX 7 14 0 -2
BITMAP
00
00
00
00
00
00
00
7C
04
04
04
00
00
00
ENDCHAR
STARTCHAR char173
ENCODING 173
SWIDTH 560 0
DWIDTH 7 0
BBX 7 14 0 -2
BITMAP
00
00
00
00
00
00
00
7C
00
00
00
00
00
00
ENDCHAR
STARTCHAR char174
ENCODING 174
SWIDTH 560 0
DWIDTH 7 0
BBX 7 14 0 -2
BITMAP
00
00
7C
82
ae
b2
a2
A2
82
7C
00
00
00
00
ENDCHAR
STARTCHAR char175
ENCODING 175
SWIDTH 560 0
DWIDTH 7 0
BBX 7 14 0 -2
BITMAP
00
7C
00
00
00
00
00
00
00
00
00
00
00
00
ENDCHAR
STARTCHAR char176
ENCODING 176
SWIDTH 560 0
DWIDTH 7 0
BBX 7 14 0 -2
BITMAP
00
38
44
44
44
38
00
00
00
00
00
00
00
00
ENDCHAR
STARTCHAR char177
ENCODING 177
SWIDTH 560 0
DWIDTH 7 0
BBX 7 14 0 -2
BITMAP
00
00
10
10
10
10
7e
10
10
10
10
00
7E
00
ENDCHAR
STARTCHAR char178
ENCODING 178
SWIDTH 560 0
DWIDTH 7 0
BBX 7 14 0 -2
BITMAP
00
38
44
08
10
24
7c
00
00
00
00
00
00
00
ENDCHAR
STARTCHAR char179
ENCODING 179
SWIDTH 560 0
DWIDTH 7 0
BBX 7 14 0 -2
BITMAP
00
38
44
18
04
44
38
00
00
00
00
00
00
00
ENDCHAR
STARTCHAR char180
ENCODING 180
SWIDTH 560 0
DWIDTH 7 0
BBX 7 14 0 -2
BITMAP
00
08
10
20
00
00
00
00
00
00
00
00
00
00
ENDCHAR
STARTCHAR char181
ENCODING 181
SWIDTH 560 0
DWIDTH 7 0
BBX 7 14 0 -2
BITMAP
00
00
00
00
00
44
44
44
44
44
64
5a
40
40
ENDCHAR
STARTCHAR char182
ENCODING 182
SWIDTH 560 0
DWIDTH 7 0
BBX 7 14 0 -2
BITMAP
00
00
1e
2A
4A
4A
4A
2A
1A
0A
0A
0A
0A
1E
ENDCHAR
STARTCHAR char183
ENCODING 183
SWIDTH 560 0
DWIDTH 7 0
BBX 7 14 0 -2
BITMAP
00
00
00
00
00
00
18
18
00
00
00
00
00
00
ENDCHAR
STARTCHAR char184
ENCODING 184
SWIDTH 560 0
DWIDTH 7 0
BBX 7 14 0 -2
BITMAP
00
00
00
00
00
00
00
00
00
00
00
08
08
30
ENDCHAR
STARTCHAR char185
ENCODING 185
SWIDTH 560 0
DWIDTH 7 0
BBX 7 14 0 -2
BITMAP
00
10
30
10
10
10
38
00
00
00
00
00
00
00
ENDCHAR
STARTCHAR char186
ENCODING 186
SWIDTH 560 0
DWIDTH 7 0
BBX 7 14 0 -2
BITMAP
00
38
44
44
38
00
7C
00
00
00
00
00
00
00
ENDCHAR
STARTCHAR char187
ENCODING 187
SWIDTH 560 0
DWIDTH 7 0
BBX 7 14 0 -2
BITMAP
00
00
00
00
00
00
90
48
24
48
90
00
00
00
ENDCHAR
STARTCHAR char188
ENCODING 188
SWIDTH 560 0
DWIDTH 7 0
BBX 7 14 0 -2
BITMAP
00
20
60
20
20
24
28
10
24
4C
14
24
3E
04
ENDCHAR
STARTCHAR char189
ENCODING 189
SWIDTH 560 0
DWIDTH 7 0
BBX 7 14 0 -2
BITMAP
00
20
60
20
20
24
28
10
2C
52
02
04
08
1E
ENDCHAR
STARTCHAR char190
ENCODING 190
SWIDTH 560 0
DWIDTH 7 0
BBX 7 14 0 -2
BITMAP
00
60
10
60
10
54
68
10
24
4C
14
24
3E
04
ENDCHAR
STARTCHAR char191
ENCODING 191
SWIDTH 560 0
DWIDTH 7 0
BBX 7 14 0 -2
BITMAP
00
18
18
00
10
10
10
08
04
44
42
42
24
18
ENDCHAR
STARTCHAR char192
ENCODING 192
SWIDTH 560 0
DWIDTH 7 0
BBX 7 14 0 -2
BITMAP
20
10
08
10
10
28
28
28
3C
44
44
ee
00
00
ENDCHAR
STARTCHAR char193
ENCODING 193
SWIDTH 560 0
DWIDTH 7 0
BBX 7 14 0 -2
BITMAP
08
10
20
10
10
28
28
28
3c
44
44
ee
00
00
ENDCHAR
STARTCHAR char194
ENCODING 194
SWIDTH 560 0
DWIDTH 7 0
BBX 7 14 0 -2
BITMAP
10
28
44
10
10
28
28
28
3c
44
44
ee
00
00
ENDCHAR
STARTCHAR char195
ENCODING 195
SWIDTH 560 0
DWIDTH 7 0
BBX 7 14 0 -2
BITMAP
32
4C
00
10
10
28
28
28
3c
44
44
ee
00
00
ENDCHAR
STARTCHAR char196
ENCODING 196
SWIDTH 560 0
DWIDTH 7 0
BBX 7 14 0 -2
BITMAP
28
28
00
10
10
28
28
28
3c
44
44
ee
00
00
ENDCHAR
STARTCHAR char197
ENCODING 197
SWIDTH 560 0
DWIDTH 7 0
BBX 7 14 0 -2
BITMAP
10
28
44
10
10
28
28
28
3c
44
44
ee
00
00
ENDCHAR
STARTCHAR char198
ENCODING 198
SWIDTH 560 0
DWIDTH 7 0
BBX 7 14 0 -2
BITMAP
00
3c
32
50
50
50
7E
50
90
90
92
de
00
00
ENDCHAR
STARTCHAR char199
ENCODING 199
SWIDTH 560 0
DWIDTH 7 0
BBX 7 14 0 -2
BITMAP
00
1A
26
22
42
40
40
40
40
22
26
18
08
30
ENDCHAR
STARTCHAR char200
ENCODING 200
SWIDTH 560 0
DWIDTH 7 0
BBX 7 14 0 -2
BITMAP
20
10
08
7e
22
20
20
3C
20
20
22
7e
00
00
ENDCHAR
STARTCHAR char201
ENCODING 201
SWIDTH 560 0
DWIDTH 7 0
BBX 7 14 0 -2
BITMAP
04
08
10
7e
22
20
20
3c
20
20
22
7e
00
00
ENDCHAR
STARTCHAR char202
ENCODING 202
SWIDTH 560 0
DWIDTH 7 0
BBX 7 14 0 -2
BITMAP
10
28
44
7e
22
20
20
3c
20
20
22
7e
00
00
ENDCHAR
STARTCHAR char203
ENCODING 203
SWIDTH 560 0
DWIDTH 7 0
BBX 7 14 0 -2
BITMAP
28
28
00
7e
22
20
20
3c
20
20
22
7e
00
00
ENDCHAR
STARTCHAR char204
ENCODING 204
SWIDTH 560 0
DWIDTH 7 0
BBX 7 14 0 -2
BITMAP
20
10
08
38
10
10
10
10
10
10
10
38
00
00
ENDCHAR
STARTCHAR char205
ENCODING 205
SWIDTH 560 0
DWIDTH 7 0
BBX 7 14 0 -2
BITMAP
08
10
20
38
10
10
10
10
10
10
10
38
00
00
ENDCHAR
STARTCHAR char206
ENCODING 206
SWIDTH 560 0
DWIDTH 7 0
BBX 7 14 0 -2
BITMAP
10
28
44
38
10
10
10
10
10
10
10
38
00
00
ENDCHAR
STARTCHAR char207
ENCODING 207
SWIDTH 560 0
DWIDTH 7 0
BBX 7 14 0 -2
BITMAP
28
28
00
38
10
10
10
10
10
10
10
38
00
00
ENDCHAR
STARTCHAR char208
ENCODING 208
SWIDTH 560 0
DWIDTH 7 0
BBX 7 14 0 -2
BITMAP
00
78
24
24
22
22
72
22
22
24
24
78
00
00
ENDCHAR
STARTCHAR char209
ENCODING 209
SWIDTH 560 0
DWIDTH 7 0
BBX 7 14 0 -2
BITMAP
32
4C
00
62
22
32
32
2A
26
26
22
62
00
00
ENDCHAR
STARTCHAR char210
ENCODING 210
SWIDTH 560 0
DWIDTH 7 0
BBX 7 14 0 -2
BITMAP
20
10
08
18
24
42
42
42
42
42
24
18
00
00
ENDCHAR
STARTCHAR char211
ENCODING 211
SWIDTH 560 0
DWIDTH 7 0
BBX 7 14 0 -2
BITMAP
08
10
20
18
24
42
42
42
42
42
24
18
00
00
ENDCHAR
STARTCHAR char212
ENCODING 212
SWIDTH 560 0
DWIDTH 7 0
BBX 7 14 0 -2
BITMAP
10
28
44
18
24
42
42
42
42
42
24
18
00
00
ENDCHAR
STARTCHAR char213
ENCODING 213
SWIDTH 560 0
DWIDTH 7 0
BBX 7 14 0 -2
BITMAP
32
4C
00
18
24
42
42
42
42
42
24
18
00
00
ENDCHAR
STARTCHAR char214
ENCODING 214
SWIDTH 560 0
DWIDTH 7 0
BBX 7 14 0 -2
BITMAP
28
28
00
18
24
42
42
42
42
42
24
18
00
00
ENDCHAR
STARTCHAR char215
ENCODING 215
SWIDTH 560 0
DWIDTH 7 0
BBX 7 14 0 -2
BITMAP
00
00
00
00
42
24
18
18
24
42
00
00
00
00
ENDCHAR
STARTCHAR char216
ENCODING 216
SWIDTH 560 0
DWIDTH 7 0
BBX 7 14 0 -2
BITMAP
00
04
04
1c
24
4A
4a
5a
52
52
24
38
20
20
ENDCHAR
STARTCHAR char217
ENCODING 217
SWIDTH 560 0
DWIDTH 7 0
BBX 7 14 0 -2
BITMAP
20
10
08
76
22
22
22
22
22
22
14
08
00
00
ENDCHAR
STARTCHAR char218
ENCODING 218
SWIDTH 560 0
DWIDTH 7 0
BBX 7 14 0 -2
BITMAP
08
10
20
76
22
22
22
22
22
22
14
08
00
00
ENDCHAR
STARTCHAR char219
ENCODING 219
SWIDTH 560 0
DWIDTH 7 0
BBX 7 14 0 -2
BITMAP
10
28
44
76
22
22
22
22
22
22
14
08
00
00
ENDCHAR
STARTCHAR char220
ENCODING 220
SWIDTH 560 0
DWIDTH 7 0
BBX 7 14 0 -2
BITMAP
28
28
00
76
22
22
22
22
22
22
14
08
00
00
ENDCHAR
STARTCHAR char221
ENCODING 221
SWIDTH 560 0
DWIDTH 7 0
BBX 7 14 0 -2
BITMAP
08
10
20
e6
42
24
28
10
10
10
10
38
00
00
ENDCHAR
STARTCHAR char222
ENCODING 222
SWIDTH 560 0
DWIDTH 7 0
BBX 7 14 0 -2
BITMAP
00
70
20
20
3C
22
22
22
3C
20
20
70
00
00
ENDCHAR
STARTCHAR char223
ENCODING 223
SWIDTH 560 0
DWIDTH 7 0
BBX 7 14 0 -2
BITMAP
00
1C
22
22
22
3c
24
22
22
22
34
48
00
00
ENDCHAR
STARTCHAR char224
ENCODING 224
SWIDTH 560 0
DWIDTH 7 0
BBX 7 14 0 -2
BITMAP
20
10
08
00
18
24
24
1c
24
44
44
3a
00
00
ENDCHAR
STARTCHAR char225
ENCODING 225
SWIDTH 560 0
DWIDTH 7 0
BBX 7 14 0 -2
BITMAP
08
10
20
00
18
24
24
1c
24
44
44
3a
00
00
ENDCHAR
STARTCHAR char226
ENCODING 226
SWIDTH 560 0
DWIDTH 7 0
BBX 7 14 0 -2
BITMAP
10
28
44
00
18
24
24
1c
24
44
44
3a
00
00
ENDCHAR
STARTCHAR char227
ENCODING 227
SWIDTH 560 0
DWIDTH 7 0
BBX 7 14 0 -2
BITMAP
32
4C
00
00
18
24
24
1c
24
44
44
3a
00
00
ENDCHAR
STARTCHAR char228
ENCODING 228
SWIDTH 560 0
DWIDTH 7 0
BBX 7 14 0 -2
BITMAP
28
28
00
00
18
24
24
1c
24
44
44
3a
00
00
ENDCHAR
STARTCHAR char229
ENCODING 229
SWIDTH 560 0
DWIDTH 7 0
BBX 7 14 0 -2
BITMAP
10
28
10
00
18
24
24
1c
24
44
44
3a
00
00
ENDCHAR
STARTCHAR char230
ENCODING 230
SWIDTH 560 0
DWIDTH 7 0
BBX 7 14 0 -2
BITMAP
00
00
00
00
6c
92
12
7e
90
90
92
6c
00
00
ENDCHAR
STARTCHAR char231
ENCODING 231
SWIDTH 560 0
DWIDTH 7 0
BBX 7 14 0 -2
BITMAP
00
00
00
00
18
26
42
40
40
42
26
18
08
30
ENDCHAR
STARTCHAR char232
ENCODING 232
SWIDTH 560 0
DWIDTH 7 0
BBX 7 14 0 -2
BITMAP
20
10
08
00
18
24
42
7e
40
42
22
1c
00
00
ENDCHAR
STARTCHAR char233
ENCODING 233
SWIDTH 560 0
DWIDTH 7 0
BBX 7 14 0 -2
BITMAP
08
10
20
00
18
24
42
7e
40
42
22
1c
00
00
ENDCHAR
STARTCHAR char234
ENCODING 234
SWIDTH 560 0
DWIDTH 7 0
BBX 7 14 0 -2
BITMAP
10
28
44
00
18
24
42
7e
40
42
22
1c
00
00
ENDCHAR
STARTCHAR char235
ENCODING 235
SWIDTH 560 0
DWIDTH 7 0
BBX 7 14 0 -2
BITMAP
28
28
00
00
18
24
42
7e
40
42
22
1c
00
00
ENDCHAR
STARTCHAR char236
ENCODING 236
SWIDTH 560 0
DWIDTH 7 0
BBX 7 14 0 -2
BITMAP
20
10
08
00
00
38
08
08
08
08
08
3c
00
00
ENDCHAR
STARTCHAR char237
ENCODING 237
SWIDTH 560 0
DWIDTH 7 0
BBX 7 14 0 -2
BITMAP
08
10
20
00
00
38
08
08
08
08
08
3c
00
00
ENDCHAR
STARTCHAR char238
ENCODING 238
SWIDTH 560 0
DWIDTH 7 0
BBX 7 14 0 -2
BITMAP
10
28
44
00
00
38
08
08
08
08
08
3c
00
00
ENDCHAR
STARTCHAR char239
ENCODING 239
SWIDTH 560 0
DWIDTH 7 0
BBX 7 14 0 -2
BITMAP
28
28
00
00
00
38
08
08
08
08
08
3c
00
00
ENDCHAR
STARTCHAR char240
ENCODING 240
SWIDTH 560 0
DWIDTH 7 0
BBX 7 14 0 -2
BITMAP
00
66
18
34
44
02
1A
26
42
42
24
18
00
00
ENDCHAR
STARTCHAR char241
ENCODING 241
SWIDTH 560 0
DWIDTH 7 0
BBX 7 14 0 -2
BITMAP
32
4C
00
00
4c
32
22
22
22
22
22
62
00
00
ENDCHAR
STARTCHAR char242
ENCODING 242
SWIDTH 560 0
DWIDTH 7 0
BBX 7 14 0 -2
BITMAP
20
10
08
00
18
24
42
42
42
42
24
18
00
00
ENDCHAR
STARTCHAR char243
ENCODING 243
SWIDTH 560 0
DWIDTH 7 0
BBX 7 14 0 -2
BITMAP
08
10
20
00
18
24
42
42
42
42
24
18
00
00
ENDCHAR
STARTCHAR char244
ENCODING 244
SWIDTH 560 0
DWIDTH 7 0
BBX 7 14 0 -2
BITMAP
10
28
44
00
18
24
42
42
42
42
24
18
00
00
ENDCHAR
STARTCHAR char245
ENCODING 245
SWIDTH 560 0
DWIDTH 7 0
BBX 7 14 0 -2
BITMAP
32
4C
00
00
18
24
42
42
42
42
24
18
00
00
ENDCHAR
STARTCHAR char246
ENCODING 246
SWIDTH 560 0
DWIDTH 7 0
BBX 7 14 0 -2
BITMAP
28
28
00
00
18
24
42
42
42
42
24
18
00
00
ENDCHAR
STARTCHAR char247
ENCODING 247
SWIDTH 560 0
DWIDTH 7 0
BBX 7 14 0 -2
BITMAP
00
00
10
10
00
00
7e
00
00
10
10
00
00
00
ENDCHAR
STARTCHAR char248
ENCODING 248
SWIDTH 560 0
DWIDTH 7 0
BBX 7 14 0 -2
BITMAP
00
00
04
04
1c
24
4a
4a
52
52
24
38
20
20
ENDCHAR
STARTCHAR char249
ENCODING 249
SWIDTH 560 0
DWIDTH 7 0
BBX 7 14 0 -2
BITMAP
20
10
08
00
cc
44
44
44
44
44
4c
32
00
00
ENDCHAR
STARTCHAR char250
ENCODING 250
SWIDTH 560 0
DWIDTH 7 0
BBX 7 14 0 -2
BITMAP
08
10
20
00
cc
44
44
44
44
44
4c
32
00
00
ENDCHAR
STARTCHAR char251
ENCODING 251
SWIDTH 560 0
DWIDTH 7 0
BBX 7 14 0 -2
BITMAP
10
28
44
00
cc
44
44
44
44
44
4c
32
00
00
ENDCHAR
STARTCHAR char252
ENCODING 252
SWIDTH 560 0
DWIDTH 7 0
BBX 7 14 0 -2
BITMAP
28
28
00
00
cc
44
44
44
44
44
4c
32
00
00
ENDCHAR
STARTCHAR char253
ENCODING 253
SWIDTH 560 0
DWIDTH 7 0
BBX 7 14 0 -2
BITMAP
08
10
20
00
66
22
22
14
14
08
08
48
50
20
ENDCHAR
STARTCHAR char254
ENCODING 254
SWIDTH 560 0
DWIDTH 7 0
BBX 7 14 0 -2
BITMAP
00
00
70
20
20
20
3C
22
22
22
22
3C
20
70
ENDCHAR
STARTCHAR char255
ENCODING 255
SWIDTH 560 0
DWIDTH 7 0
BBX 7 14 0 -2
BITMAP
28
28
00
00
66
22
22
14
14
08
08
48
50
20
ENDCHAR
ENDFONT
